<svg width="120" height="120" viewBox="0 0 120 120" fill="none" xmlns="http://www.w3.org/2000/svg">
<path d="M52.0001 4.61881C56.9505 1.76069 63.0497 1.76069 68.0001 4.61881L103.962 25.3812C108.912 28.2393 111.962 33.5214 111.962 39.2376V80.7624C111.962 86.4787 108.912 91.7607 103.962 94.6188L68.0001 115.381C63.0497 118.239 56.9505 118.239 52.0001 115.381L16.0386 94.6188C11.0882 91.7607 8.03857 86.4787 8.03857 80.7624V39.2376C8.03857 33.5214 11.0882 28.2393 16.0386 25.3812L52.0001 4.61881Z" fill="#FEF7C1"/>
<path fill-rule="evenodd" clip-rule="evenodd" d="M102.213 31.9431C104.395 32.8852 105.736 35.1095 105.551 37.4784L105.24 41.4642C105.147 42.6684 104.286 43.6741 103.11 43.9526C101.935 44.2311 100.714 43.7186 100.09 42.6846L95.0542 34.3429C94.4297 33.3084 94.5451 31.989 95.3397 31.0787C96.1344 30.1683 97.4262 29.8758 98.5355 30.3548L102.213 31.9431Z" fill="white" fill-opacity="0.88"/>
<rect x="55" y="71" width="10" height="15" fill="#EFBD0E"/>
<path d="M39 37.0537C39 34.8149 40.8143 33 43.0524 33H76.9476C79.1857 33 81 34.8149 81 37.0537V53.9933C81 65.595 71.598 75 60 75C48.402 75 39 65.595 39 53.9933V37.0537Z" fill="#F8DB46"/>
<path d="M68.2727 81C70.8835 81 73 83.1871 73 85.885L73 89.7788C73 90.4532 72.4709 91 71.8182 91L48.1818 91C47.5291 91 47 90.4532 47 89.7788L47 85.885C47 83.1871 49.1165 81 51.7273 81L68.2727 81Z" fill="#F8DB46"/>
<path d="M59.2989 41.4358C59.5857 40.8547 60.4143 40.8547 60.7011 41.4358L63.4946 47.0961C63.6085 47.3268 63.8286 47.4868 64.0833 47.5238L70.3297 48.4315C70.971 48.5246 71.2271 49.3127 70.763 49.7651L66.2431 54.171C66.0588 54.3506 65.9747 54.6094 66.0182 54.863L67.0852 61.0842C67.1948 61.7229 66.5244 62.21 65.9508 61.9085L60.3638 58.9712C60.1361 58.8514 59.8639 58.8514 59.6362 58.9712L54.0492 61.9085C53.4756 62.21 52.8052 61.7229 52.9148 61.0842L53.9818 54.863C54.0253 54.6094 53.9412 54.3506 53.7569 54.171L49.237 49.7651C48.7729 49.3127 49.029 48.5246 49.6703 48.4315L55.9167 47.5238C56.1714 47.4868 56.3915 47.3268 56.5054 47.0961L59.2989 41.4358Z" fill="#EFBD0E"/>
</svg>
